<svg xmlns="http://www.w3.org/2000/svg" viewBox="0 0 404.4 404.4"><defs><style>.cls-1{fill:#000;stroke-width:0}.cls-2{display:none}</style></defs><path class="cls-1" d="M196.3 106V82.3c0-2.3 1.3-4.3 3.3-5.3 3.9-1.9 8.5.9 8.6 5.3V106c0 2.3-1.3 4.3-3.3 5.3-4 1.9-8.5-.9-8.6-5.3Zm88.9 243.1h-23.7c-2.3 0-4.3-1.3-5.3-3.3-1.9-4 .9-8.5 5.3-8.6h23.7c2.3 0 4.3 1.3 5.3 3.3 1.9 3.9-.9 8.5-5.3 8.6Zm48.3 0h-12.8c-2.3 0-4.3-1.3-5.3-3.3-1.9-4 .9-8.5 5.3-8.6h12.8c-.9-2.5-2.3-5-4.3-7.4-.4-.4-.8-.8-1.1-1.3-6.2-7.1-16.7-13.5-30.4-19-24.3-9.7-58.1-15.7-95.6-15.7s-71.2 6-95.5 15.7c-13.7 5.5-24.2 12-30.4 19-.3.5-.6.9-1.1 1.3-3.4 4.3-5.3 8.8-5.3 13.3 0 12.6 14.1 24.5 36.8 33.6 24.3 9.7 58.1 15.7 95.5 15.7s71.2-6 95.6-15.7c19.1-7.7 32.1-17.3 35.7-27.7Zm12.9-6.2v.6c-.2 17.8-17.1 33.4-44.2 44.2-25.7 10.3-61 16.6-100 16.6s-74.3-6.3-99.9-16.6c-27.3-10.9-44.2-26.6-44.2-44.6s2.8-14.3 8-20.7L196.7 3.7v-.1c.2-.5.5-.9.8-1.3V2l.1-.2h.1c.4-.3.8-.6 1.3-.8h.4c.3 0 .6-.1 1-.1h.7c.3 0 .6 0 1 .2h.4c.5.2.9.5 1.3.8v.2c.3.5.6.9.8 1.4v.1l130.7 318.9c5.1 6.3 7.9 13.2 8 20.4Zm-138.3-5.6h17.8c2.3 0 4.3 1.3 5.3 3.3 1.9 3.9-.9 8.5-5.3 8.6h-23.7c-2.3 0-4.3-1.3-5.3-3.3-.5-.9-.6-1.9-.6-2.9v-23.7c0-2.3 1.3-4.3 3.3-5.3 3.9-1.9 8.5.9 8.6 5.3v18Zm0-55.3c36.6.6 69.6 6.8 94 16.6 6.2 2.5 11.9 5.2 17 8.2l-111-270.9v10.8c0 2.3-1.3 4.3-3.3 5.3-4 1.9-8.5-.9-8.6-5.3V35.9l-111 270.9c5.1-3 10.7-5.7 17-8.2 24.4-9.7 57.5-16 94-16.6v-22c0-2.3 1.3-4.3 3.3-5.3 3.9-1.9 8.5.9 8.6 5.3v22Zm-11.8-116.7v-23.7c0-2.3 1.3-4.3 3.3-5.3 3.9-1.9 8.5.9 8.6 5.3v23.7c0 2.3-1.3 4.3-3.3 5.3-4 1.9-8.5-.9-8.6-5.3Zm0 59.2v-23.7c0-2.3 1.3-4.3 3.3-5.3 3.9-1.9 8.5.9 8.6 5.3v23.7c0 2.3-1.3 4.3-3.3 5.3-4 1.9-8.5-.9-8.6-5.3Z" id="cone"/></svg>