<svg xmlns="http://www.w3.org/2000/svg" viewBox="0 0 404.4 404.4"><defs><style>.cls-1{fill:#000;stroke-width:0}.cls-2{display:none}</style></defs><path class="cls-1" d="M134.2 380.3h249.3c-.2-.9-.2-1.9 0-3 1.1-4 5.7-5.7 9.1-3.4V122H282.1v15.2c0 2.3-1.3 4.3-3.3 5.3-3.9 1.9-8.5-.9-8.6-5.3V122h-136v258.4ZM277.6 12.4c1 .3 2 .8 2.7 1.5L401.7 111c1.6 1.1 2.7 2.9 2.7 5v270.2c0 .4 0 .9-.1 1.3s0 .1 0 .1c-.2.8-.5 1.5-.9 2v.4c-.2.3-.6.6-.9.9h-.1c-.7.6-1.5 1-2.4 1.1H128.3c-1.6 0-3.1-.6-4.1-1.7L2.7 293.4c-.4-.3-.8-.6-1.2-1-.3-.3-.5-.7-.7-1.1v-.1c0-.2-.1-.2-.2-.4s0-.2 0-.2v-.1c-.3-.7-.4-1.5-.3-2.2V18.2c-.3-3.3 2.4-6 5.6-6h270c.6 0 1.2 0 1.7.2Zm-7.4 11.7H22.8l107.5 86h144.1c1.2-.4 2.4-.4 3.5 0h103.7L282 30.4c-.2 2.1-1.4 3.9-3.3 4.9-3.9 1.9-8.5-.9-8.6-5.3v-5.9ZM11.9 30.5v252h5.9c2.3 0 4.3 1.3 5.3 3.3 1.3 2.7.4 5.8-1.8 7.4l101 80.8v-79.7h-18.8c-2.3 0-4.3-1.3-5.3-3.3-1.9-4 .9-8.5 5.3-8.6h18.8V118.9L11.9 30.5Zm270.2 255v-9c0-4.4-4.6-7.3-8.6-5.3-2 1-3.3 3-3.3 5.3v5.9h-5.9c-4.4 0-7.3 4.6-5.3 8.6 1 2 3 3.3 5.3 3.3h9.8l7.6 6.1c3.4 2.7 8.4 1 9.4-3.2.6-2.3-.2-4.6-2-6.1l-7-5.6Zm-11.9-41.1c0 4.4 4.6 7.3 8.6 5.3 2-1 3.3-3 3.3-5.3V223c0-4.4-4.6-7.3-8.6-5.3-2 1-3.3 3-3.3 5.3v21.4Zm0-53.6c0 4.4 4.6 7.3 8.6 5.3 2-1 3.3-3 3.3-5.3v-21.4c0-4.4-4.6-7.3-8.6-5.3-2 1-3.3 3-3.3 5.3v21.4Zm0-107.2c0 4.4 4.6 7.3 8.6 5.3 2-1 3.3-3 3.3-5.3V62.2c0-4.4-4.6-7.3-8.6-5.3-2 1-3.3 3-3.3 5.3v21.4Zm-38.1 210.7c4.4 0 7.3-4.6 5.3-8.6-1-2-3-3.3-5.3-3.3h-21.4c-4.4 0-7.3 4.6-5.3 8.6 1 2 3 3.3 5.3 3.3h21.4Zm-53.5 0c4.4 0 7.3-4.6 5.3-8.6-1-2-3-3.3-5.3-3.3h-21.4c-4.4 0-7.3 4.6-5.3 8.6 1 2 3 3.3 5.3 3.3h21.4Zm-107.2 0c4.4 0 7.3-4.6 5.3-8.6-1-2-3-3.3-5.3-3.3H50c-4.4 0-7.3 4.6-5.3 8.6 1 2 3 3.3 5.3 3.3h21.4Zm290.2 70c3.4 2.7 8.3 1 9.4-3.2.6-2.3-.2-4.6-2-6.1l-16-12.8c-3.4-2.7-8.3-1-9.4 3.2-.6 2.3.2 4.6 2 6.1l16 12.8Zm-40-31.9c3.4 2.7 8.3 1 9.4-3.2.6-2.3-.2-4.6-2-6.1l-16-12.8c-3.4-2.7-8.3-1-9.4 3.2-.6 2.3.2 4.6 2 6.1l16 12.8Z" id="cube"/></svg>