<svg xmlns="http://www.w3.org/2000/svg" viewBox="0 0 404.4 404.4"><defs><style>.cls-1{fill:#000;stroke-width:0}.cls-2{display:none}</style></defs><path class="cls-1" d="M196.3 66.8V54.9c0-2.3 1.3-4.3 3.3-5.3 4-1.9 8.5.9 8.6 5.3v11.9c0 2.3-1.3 4.3-3.3 5.3-3.9 1.9-8.5-.9-8.6-5.3Zm17.8 288.5h-11.6c-3.5 0-6.2-2.6-6.2-6.2v-11.6c0-2.3 1.3-4.3 3.3-5.3 4-1.9 8.5.9 8.6 5.3v5.9h5.9c2.3 0 4.3 1.3 5.3 3.3 1.9 3.9-.9 8.5-5.3 8.6Zm61.8 0h-24.7c-2.3 0-4.3-1.3-5.3-3.3-1.9-4 .9-8.5 5.3-8.6h24.7c2.3 0 4.3 1.3 5.3 3.3 1.9 3.9-.9 8.5-5.3 8.6Zm41.8 0c-4 0-8 .7-10-3.3-1.9-4 .9-8.5 5.3-8.6h4.7c-3.6-8.7-14.7-16.8-31-23.3-20.6-8.2-48.8-13.5-80.2-13.9-2.4 2.5-6.3 2.5-8.6 0-31.4.4-59.6 5.7-80.2 13.9-42.9 17.2-42.9 41.3 0 58.4 46.4 18.6 122.6 18.6 169.1 0 16.3-6.5 27.4-14.6 31-23.3Zm13.1-6.1v.6c-.2 16.1-15.3 30.1-39.7 39.8-49.3 19.7-128.5 19.7-177.9 0-24.5-9.8-39.7-24-39.7-40.2V55c0-16.2 15.2-30.4 39.7-40.2 49.4-19.7 128.5-19.7 177.9 0 24.5 9.8 39.7 23.9 39.7 40.2v294.2Zm-122.7-54.7c37.8.7 87.1 9.2 110.8 31.3V78.6c-23.7 22.1-73.1 30.6-110.8 31.3v15.8c0 2.3-1.3 4.3-3.3 5.3-3.9 1.9-8.5-.9-8.6-5.3v-15.8c-37.8-.7-87.1-9.2-110.8-31.3v247.1c23.7-22.1 73.1-30.6 110.8-31.3v-15.8c0-2.3 1.3-4.3 3.3-5.3 4-1.9 8.5.9 8.6 5.3v15.8ZM197.9 98.1c2.4-2.6 6.3-2.5 8.7 0 31.4-.4 59.6-5.7 80.2-13.9 42.9-17.2 42.9-41.3 0-58.4-46.5-18.6-122.7-18.6-169.1 0-42.9 17.2-42.9 41.3 0 58.4 20.6 8.2 48.8 13.5 80.2 13.9Zm-1.6 86.5V161c0-2.3 1.3-4.3 3.3-5.3 4-1.9 8.5.9 8.6 5.3v23.6c0 2.3-1.3 4.3-3.3 5.3-3.9 1.9-8.5-.9-8.6-5.3Zm0 58.8v-23.5c0-2.3 1.3-4.3 3.3-5.3 4-1.9 8.5.9 8.6 5.3v23.5c0 2.3-1.3 4.3-3.3 5.3-3.9 1.9-8.5-.9-8.6-5.3Z" id="cylinder"/></svg>