<svg xmlns="http://www.w3.org/2000/svg" viewBox="0 0 404.4 404.4"><defs><style>.cls-1{fill:#000;stroke-width:0}.cls-2{display:none}</style></defs><path class="cls-1" d="M196.3 50.9c0-4.4 4.6-7.3 8.6-5.3 2 1 3.3 3 3.3 5.3v20.7c0 4.4-4.6 7.3-8.6 5.3-2-1-3.3-3-3.3-5.3V50.9ZM93.6 392.6h217.3l-9.5-13.3c-1.3-1.8-1.5-4-.6-5.9 1.9-4.1 7.5-4.7 10.2-1l7.2 10V181.8h-110v.3c0 4.4-4.6 7.3-8.6 5.3-2-1-3.3-3-3.3-5.3v-.3h-110v200.6l7.2-10c2.7-3.7 8.4-3.1 10.3 1.1.8 1.9.6 4.1-.6 5.8l-9.5 13.3Zm102.7-287.8c0-4.4 4.6-7.3 8.6-5.3 2 1 3.3 3 3.3 5.3v22.1c0 4.4-4.6 7.3-8.6 5.3-2-1-3.3-3-3.3-5.3v-22.1Zm0 55.2c0-4.4 4.6-7.3 8.6-5.3 2 1 3.3 3 3.3 5.3v9.9h104.4L202.2 16.1 91.9 170h104.4v-9.9Zm0 55.3c0-4.4 4.6-7.3 8.6-5.3 2 1 3.3 3 3.3 5.3v22.1c0 4.4-4.6 7.3-8.6 5.3-2-1-3.3-3-3.3-5.3v-22.1Zm87 138.8c2.6 3.7 8.3 3.2 10.2-1 .9-1.9.7-4.2-.6-5.9l-12-16.7c-2.6-3.7-8.3-3.2-10.2 1-.9 1.9-.7 4.2.6 5.9l12 16.7Zm-30-41.8c2.6 3.7 8.3 3.2 10.2-1 .9-1.9.7-4.2-.6-5.9l-12-16.7c-2.7-3.7-8.3-3.2-10.2 1-.9 1.9-.7 4.2.6 5.9l12 16.7Zm-30-41.9c2.7 3.7 8.3 3.2 10.2-1 .9-1.9.7-4.2-.6-5.9l-6.9-9.6c-2.6-3.7-8.3-3.2-10.2 1-.9 1.9-.7 4.2.6 5.9l6.9 9.6Zm-111.8 76.9c-1.2 1.7-1.5 3.9-.6 5.8 1.9 4.2 7.5 4.8 10.2 1.1l12-16.7c1.2-1.7 1.5-3.9.6-5.8-1.9-4.2-7.6-4.8-10.2-1.1l-12 16.7Zm30-41.9c-1.2 1.7-1.5 3.9-.6 5.8 1.9 4.2 7.5 4.8 10.2 1.1l12-16.7c1.2-1.7 1.5-3.9.6-5.8-1.9-4.2-7.5-4.8-10.2-1.1l-12 16.7Zm30-41.9c-1.2 1.7-1.5 3.9-.6 5.8 1.9 4.2 7.6 4.8 10.2 1.1l6.9-9.6c1.2-1.7 1.4-3.9.6-5.8-1.9-4.2-7.6-4.8-10.3-1.1l-6.9 9.6ZM198 1.8c.5-.5 1-.9 1.6-1.2h.1c.7-.4 1.5-.5 2.2-.5h.2c.7 0 1.5.2 2.2.5h.1c.6.3 1.1.7 1.6 1.1.2.4.5.6.7.9l121.6 169.7c.8 1 1.2 2.3 1.2 3.6v222.6c0 3.3-2.7 5.9-5.9 5.9H80.4c-3.3 0-5.9-2.7-5.9-5.9V175.9c0-1.3.5-2.6 1.2-3.6L197.3 2.6c.2-.3.4-.5.6-.8Z" id="prism"/></svg>