<svg xmlns="http://www.w3.org/2000/svg" viewBox="0 0 404.4 404.4"><defs><style>.cls-1{fill:#000;stroke-width:0}.cls-2{display:none}</style></defs><path class="cls-1" d="m86.1 307-22.3 7.9c-2.2.8-4.5.2-6.2-1.4-3.1-3.1-1.9-8.3 2.2-9.8l22.3-7.9c2.2-.8 4.5-.2 6.2 1.4 3.1 3.1 1.9 8.3-2.2 9.8Zm236.2-11.1 22.3 7.9c3.9 1.4 5.2 6.2 2.6 9.4a5.96 5.96 0 0 1-6.5 1.8l-22.3-7.9c-3.9-1.4-5.2-6.2-2.6-9.4 1.6-1.9 4.2-2.6 6.5-1.8Zm-55.9-19.8 22.3 7.9c3.9 1.4 5.2 6.2 2.6 9.4a5.96 5.96 0 0 1-6.5 1.8l-22.3-7.9c-3.9-1.4-5.2-6.2-2.6-9.4 1.6-1.9 4.2-2.6 6.5-1.8Zm-55.8-19.7 22.3 7.9c3.9 1.4 5.2 6.2 2.6 9.4a5.96 5.96 0 0 1-6.5 1.8l-20.8-7.4v122l172.6-61-6.6-2.3c-3.9-1.4-5.2-6.2-2.6-9.4 1.6-1.9 4.2-2.6 6.5-1.8l6.7 2.4L208.1 27v229c.8 0 1.6 0 2.4.3Zm192.6 69.1c1.6 2.1 1.7 5.1-.2 7.4-.8.9-1.8 1.6-2.9 1.9L204.5 404c-.7.3-1.5.5-2.3.5s-1.6-.2-2.3-.5L4.3 334.8c-.9-.3-1.8-.8-2.5-1.5-2.2-2.2-2.2-5.5-.6-7.7L196.9 3.3c.9-1.9 3-3.3 5.3-3.3s4.4 1.4 5.3 3.3l195.7 322.2Zm-261.3-38.2-22.3 7.9c-2.1.8-4.5.2-6.1-1.4-3.1-3.1-1.9-8.3 2.2-9.8l22.3-7.9c2.1-.8 4.5-.2 6.2 1.4 3.1 3.1 1.9 8.3-2.2 9.8Zm54.4-19.2-20.8 7.4c-2.2.8-4.5.2-6.2-1.4-3.1-3.1-1.9-8.3 2.2-9.8l22.3-7.9c.8-.3 1.6-.4 2.4-.3V27L19.6 318l6.7-2.4c2.1-.8 4.5-.2 6.2 1.4 3.1 3.1 1.9 8.3-2.2 9.8l-6.6 2.3 172.6 61v-122Z" id="pyramid"/></svg>