<svg xmlns="http://www.w3.org/2000/svg" viewBox="0 0 404.4 404.4"><defs><style>.cls-1{fill:#000;stroke-width:0}.cls-2{display:none}</style></defs><path class="cls-1" d="M202.2 0c55.8 0 106.4 22.6 143 59.2 36.6 36.6 59.2 87.1 59.2 143s-22.6 106.4-59.2 143c-36.6 36.6-87.1 59.2-143 59.2s-106.4-22.6-143-59.2C22.6 308.6 0 258 0 202.2s22.6-106.4 59.2-143C95.8 22.6 146.4 0 202.2 0Zm71.9 349c-3.7 6.9-8.4 14.5-13.2 20.8-2.4 3-6.8 3.1-9.3.2-1.7-2.1-1.8-5.2-.1-7.4 4.6-6.1 8.6-12.5 12.2-19.2 2.2-4.1 8.1-4.1 10.4 0 1 1.8 1 3.9 0 5.7Zm63.8-224.2c7.4 3.4 14.6 7.3 21.5 11.6 3.8 2.4 3.6 7.9-.3 10.2-1.9 1.1-4.2 1-6.1-.2-6.5-4.1-13.2-7.7-20.2-10.9-3.9-1.8-4.6-7.1-1.3-9.9 1.8-1.5 4.2-1.8 6.3-.9Zm-57.4-18.7c7.9 1.7 15.7 3.7 23.4 5.9 1.9.6 3.3 1.9 3.9 3.8 1.5 4.5-2.7 8.9-7.3 7.6-.8-.2-1.7-.5-2.5-.7 1 4.7 2 9.5 2.8 14.4.4 2.3-.6 4.5-2.4 5.8-3.6 2.5-8.5.4-9.2-3.9-1.2-6.7-2.5-13.2-4.1-19.7-2.4-.6-4.7-1.1-7.1-1.6-2.7-.6-4.7-3-4.7-5.8s3.4-6.6 7.2-5.8Zm-59.7-7.5c8 .4 16 1 24 1.9 3 .3 5.2 2.8 5.3 5.8 0 3.6-3 6.4-6.6 6-7.7-.9-15.5-1.4-23.2-1.8-3-.2-5.5-2.6-5.6-5.6-.2-3.5 2.7-6.4 6.2-6.2Zm-60.1 1.7c8-.9 16-1.4 24-1.8 2 0 3.8.8 5 2.4 2.9 3.8.3 9.3-4.5 9.5-7.8.3-15.5.9-23.3 1.7-2.4.2-4.6-.9-5.8-3.1-2-3.7.4-8.3 4.6-8.7Zm-59.1 11.4c2.7-.7 5.3-1.5 7.9-2.1 4.7-18 10.8-34.5 18-48.8 9.4-18.7 20.6-33.9 33.2-44.4-35.9 8-68 26.1-93.1 51.2s-43.2 57.2-51.2 93.1c.2-.2.4-.4.6-.7 5.7-6.7 14.3 1.5 9.3 7.3-4.6 5.4-8.5 11.2-11.1 17.9-.7 1.7-1.7 2.9-2.8 3.5-.3 4.4-.5 8.9-.5 13.4 0 24.7 20.7 47.4 54.2 64.1 12 6 25.5 11.2 40.4 15.4-5.3-24.4-8.3-51.3-8.3-79.6s3-55.1 8.3-79.5l-1.5.4c-2.4.7-4.8-.1-6.4-2.1-2.5-3.3-1-8.1 3-9.3Zm21.1-5.3c.8-.2 1.6-.3 2.4-.5 2.2-.4 4.3.3 5.8 2 2.8 3.4 1 8.6-3.4 9.6-2.8.6-5.5 1.2-8.2 1.9-6 25.1-9.3 53.2-9.3 82.8s3.3 57.8 9.3 82.9c25.1 6 53.2 9.3 82.9 9.3 53.3 0 101.5-10.7 136.2-28.1 33.5-16.7 54.2-39.5 54.2-64.1s-.1-8.4-.4-12.6c-1-.6-1.9-1.6-2.4-3-2.2-6-5.4-11.4-9.4-16.5-1.8-2.3-4-4.3-2.6-7.9 1.6-4.3 7.2-5.2 10.1-1.7l.2.2c-8-35.9-26.1-68-51.2-93.1-25.2-25.2-57.4-43.3-93.4-51.3 3.2 2.6 6.2 5.3 8.4 7.7 2.1 2.2 4.2 4 3.5 7.4-1 4.8-6.9 6.4-10.2 2.8-5-5.6-14-12.8-20.4-16.8-1.7-1.1-2.6-2.7-2.7-4.4-6.5-.7-13.1-1-19.8-1-24.7 0-47.4 20.7-64.1 54.2-6 12-11.2 25.5-15.4 40.3Zm-76.8 29.4c6.9-4.3 14.2-8.2 21.6-11.5 1.8-.8 3.9-.7 5.6.4 4 2.5 3.6 8.5-.7 10.4-7 3.2-13.7 6.7-20.2 10.8-1.8 1.1-4.1 1.2-5.9.2-4-2.2-4.2-7.9-.3-10.3Zm249 159.1c-1.8 7-3.9 13.9-6.2 20.7-1.5 4.3-7.1 5.4-10.1 1.9-1.4-1.6-1.8-3.8-1.1-5.8 1.5-4.5 3-9.1 4.3-13.7-24.4 5.3-51.3 8.3-79.5 8.3s-55.1-3-79.5-8.3c4.2 14.8 9.4 28.4 15.4 40.3 16.7 33.5 39.4 54.2 64.1 54.2h4.1l1.2-.3c6.2-.8 11.7-2.6 17.2-5.6 2.8-1.5 5.1-3.5 8.6-1.6 1.7 1 2.7 2.7 3 4.4 38.9-7 73.7-25.9 100.6-52.7 25.1-25.1 43.3-57.2 51.2-93.2-10.5 12.6-25.7 23.9-44.4 33.2-14.3 7.2-30.7 13.2-48.8 18Zm10.2-61.9c-.6 8-1.5 16-2.6 23.9-.7 4.5-5.9 6.6-9.5 3.9-1.7-1.3-2.6-3.4-2.2-5.5 1.1-7.7 1.9-15.4 2.5-23.2.3-3.5 3.5-6 7-5.4 3 .6 5 3.3 4.8 6.3Zm.1-60.1c.6 8 .9 16 1.1 24 0 2.4-1.4 4.6-3.7 5.5-3.9 1.6-8.1-1.2-8.2-5.4 0-7.8-.4-15.5-1-23.3-.2-2.1.8-4 2.4-5.2 3.8-2.7 9-.2 9.4 4.4ZM274.8 56.7c3.8 7.2 7.1 14.6 10.1 22.1.8 2.1.4 4.5-1.1 6.1-3 3.3-8.3 2.3-9.9-1.8-2.8-7.1-6-14.2-9.6-20.9-1.1-2.2-.9-4.7.7-6.6 2.7-3.2 7.8-2.7 9.8 1.1ZM160.8 388c-12.6-10.5-23.8-25.7-33.2-44.4-7.1-14.3-13.2-30.7-18-48.8-18-4.7-34.5-10.8-48.8-18-18.7-9.4-33.9-20.6-44.4-33.2 8 35.9 26.1 68 51.2 93.2 25.1 25.1 57.2 43.3 93.1 51.2Z" id="sphere"/></svg>